{
  "asset": {
    "version": "2.0",
    "generator": "THREE.GLTFExporter"
  },
  "scenes": [
    {
      "name": "Scene",
      "nodes": [
        18
      ]
    }
  ],
  "scene": 0,
  "nodes": [
    {
      "matrix": [
        1,
        0,
        0,
        0,
        0,
        1,
        0,
        0,
        0,
        0,
        1,
        0,
        0,
        0,
        -1,
        1
      ]
    },
    {
      "matrix": [
        1,
        0,
        0,
        0,
        0,
        3.422854177870249e-8,
        -0.9999999657714582,
        0,
        0,
        0.9999999657714582,
        3.422854177870249e-8,
        0,
        0,
        0,
        0,
        1
      ],
      "name": "Sun_Orientation",
      "extras": {
        "name": "Sun_Orientation"
      },
      "extensions": {
        "KHR_lights_punctual": {
          "light": 0
        }
      },
      "children": [
        0
      ]
    },
    {
      "matrix": [
        0.6665748901370393,
        -0.7412357316666942,
        -0.07904092713861299,
        0,
        0.7247838397513362,
        0.6692392062655546,
        -0.16372914510806735,
        0,
        0.17425918540409935,
        0.05185014390577747,
        0.9833337668314858,
        0,
        13.299999237060547,
        7.1399993896484375,
        -9.519999504089355,
        1
      ],
      "name": "Sun",
      "extras": {
        "name": "Sun"
      },
      "children": [
        1
      ]
    },
    {
      "name": "Cube001",
      "mesh": 0
    },
    {
      "name": "Cube001_1",
      "mesh": 1
    },
    {
      "name": "Cube001_2",
      "mesh": 2
    },
    {
      "name": "Cube001_3",
      "mesh": 3
    },
    {
      "name": "BirchTree_1001",
      "extras": {
        "name": "BirchTree_1.001"
      },
      "children": [
        3,
        4,
        5,
        6
      ]
    },
    {
      "name": "Cube002",
      "mesh": 4
    },
    {
      "name": "Cube002_1",
      "mesh": 5
    },
    {
      "name": "Cube002_2",
      "mesh": 6
    },
    {
      "name": "Cube002_3",
      "mesh": 7
    },
    {
      "matrix": [
        3.0799999237060547,
        0,
        0,
        0,
        0,
        -2.1909528491723638,
        -0.7629710433972344,
        0,
        0,
        0.9602911935501504,
        -2.7575787374258534,
        0,
        3.299999952316284,
        8.960000038146973,
        -6.799999713897705,
        1
      ],
      "name": "BirchTree_1002",
      "extras": {
        "name": "BirchTree_1.002"
      },
      "children": [
        8,
        9,
        10,
        11
      ]
    },
    {
      "name": "Cube",
      "mesh": 8
    },
    {
      "name": "Cube_1",
      "mesh": 9
    },
    {
      "name": "Cube_2",
      "mesh": 10
    },
    {
      "name": "Cube_3",
      "mesh": 11
    },
    {
      "matrix": [
        1,
        0,
        0,
        0,
        0,
        1,
        0,
        0,
        0,
        0,
        1,
        0,
        5.139999866485596,
        0,
        3.6399998664855957,
        1
      ],
      "name": "BirchTree_1",
      "extras": {
        "name": "BirchTree_1"
      },
      "children": [
        13,
        14,
        15,
        16
      ]
    },
    {
      "name": "scenetest.glb",
      "extras": {
        "rpr": {
          "saved_addon_version": [
            2,
            0,
            112
          ]
        }
      },
      "children": [
        2,
        7,
        12,
        17
      ]
    }
  ],
  "extensions": {
    "KHR_lights_punctual": {
      "lights": [
        {
          "name": "Sun_Orientation",
          "color": [
            1,
            1,
            1
          ],
          "intensity": 1,
          "type": "directional"
        }
      ]
    }
  },
  "bufferViews": [
    {
      "buffer": 0,
      "byteOffset": 0,
      "byteLength": 25728,
      "target": 34962,
      "byteStride": 12
    },
    {
      "buffer": 0,
      "byteOffset": 25728,
      "byteLength": 25728,
      "target": 34962,
      "byteStride": 12
    },
    {
      "buffer": 0,
      "byteOffset": 51456,
      "byteLength": 6432,
      "target": 34963
    },
    {
      "buffer": 0,
      "byteOffset": 57888,
      "byteLength": 2016,
      "target": 34962,
      "byteStride": 12
    },
    {
      "buffer": 0,
      "byteOffset": 59904,
      "byteLength": 2016,
      "target": 34962,
      "byteStride": 12
    },
    {
      "buffer": 0,
      "byteOffset": 61920,
      "byteLength": 336,
      "target": 34963
    },
    {
      "buffer": 0,
      "byteOffset": 62256,
      "byteLength": 11904,
      "target": 34962,
      "byteStride": 12
    },
    {
      "buffer": 0,
      "byteOffset": 74160,
      "byteLength": 11904,
      "target": 34962,
      "byteStride": 12
    },
    {
      "buffer": 0,
      "byteOffset": 86064,
      "byteLength": 2976,
      "target": 34963
    },
    {
      "buffer": 0,
      "byteOffset": 89040,
      "byteLength": 1920,
      "target": 34962,
      "byteStride": 12
    },
    {
      "buffer": 0,
      "byteOffset": 90960,
      "byteLength": 1920,
      "target": 34962,
      "byteStride": 12
    },
    {
      "buffer": 0,
      "byteOffset": 92880,
      "byteLength": 480,
      "target": 34963
    },
    {
      "buffer": 0,
      "byteOffset": 93360,
      "byteLength": 25728,
      "target": 34962,
      "byteStride": 12
    },
    {
      "buffer": 0,
      "byteOffset": 119088,
      "byteLength": 25728,
      "target": 34962,
      "byteStride": 12
    },
    {
      "buffer": 0,
      "byteOffset": 144816,
      "byteLength": 2016,
      "target": 34962,
      "byteStride": 12
    },
    {
      "buffer": 0,
      "byteOffset": 146832,
      "byteLength": 2016,
      "target": 34962,
      "byteStride": 12
    },
    {
      "buffer": 0,
      "byteOffset": 148848,
      "byteLength": 11904,
      "target": 34962,
      "byteStride": 12
    },
    {
      "buffer": 0,
      "byteOffset": 160752,
      "byteLength": 11904,
      "target": 34962,
      "byteStride": 12
    },
    {
      "buffer": 0,
      "byteOffset": 172656,
      "byteLength": 1920,
      "target": 34962,
      "byteStride": 12
    },
    {
      "buffer": 0,
      "byteOffset": 174576,
      "byteLength": 1920,
      "target": 34962,
      "byteStride": 12
    },
    {
      "buffer": 0,
      "byteOffset": 176496,
      "byteLength": 25728,
      "target": 34962,
      "byteStride": 12
    },
    {
      "buffer": 0,
      "byteOffset": 202224,
      "byteLength": 25728,
      "target": 34962,
      "byteStride": 12
    },
    {
      "buffer": 0,
      "byteOffset": 227952,
      "byteLength": 2016,
      "target": 34962,
      "byteStride": 12
    },
    {
      "buffer": 0,
      "byteOffset": 229968,
      "byteLength": 2016,
      "target": 34962,
      "byteStride": 12
    },
    {
      "buffer": 0,
      "byteOffset": 231984,
      "byteLength": 11904,
      "target": 34962,
      "byteStride": 12
    },
    {
      "buffer": 0,
      "byteOffset": 243888,
      "byteLength": 11904,
      "target": 34962,
      "byteStride": 12
    },
    {
      "buffer": 0,
      "byteOffset": 255792,
      "byteLength": 1920,
      "target": 34962,
      "byteStride": 12
    },
    {
      "buffer": 0,
      "byteOffset": 257712,
      "byteLength": 1920,
      "target": 34962,
      "byteStride": 12
    }
  ],
  "buffers": [
    {
      "byteLength": 259632,
      "uri": "data:application/octet-stream;base64,"
    }
  ],
  "accessors": [
    {
      "bufferView": 0,
      "componentType": 5126,
      "count": 2144,
      "max": [
        0.280149906873703,
        2.686344623565674,
        0.15886908769607544
      ],
      "min": [
        -0.21908558905124664,
        -0.006081616505980492,
        -1.6560511589050293
      ],
      "type": "VEC3"
    },
    {
      "bufferView": 1,
      "componentType": 5126,
      "count": 2144,
      "max": [
        0.9991178512573242,
        0.9319217801094055,
        0.9923385381698608
      ],
      "min": [
        -0.9960218667984009,
        -1,
        -0.9954705834388733
      ],
      "type": "VEC3"
    },
    {
      "bufferView": 2,
      "componentType": 5123,
      "count": 3216,
      "max": [
        2143
      ],
      "min": [
        0
      ],
      "type": "SCALAR"
    },
    {
      "bufferView": 3,
      "componentType": 5126,
      "count": 168,
      "max": [
        0.280149906873703,
        2.0041983127593994,
        0.1535726934671402
      ],
      "min": [
        -0.20245550572872162,
        0.161623015999794,
        -1.5157122611999512
      ],
      "type": "VEC3"
    },
    {
      "bufferView": 4,
      "componentType": 5126,
      "count": 168,
      "max": [
        0.981581449508667,
        0.5885465145111084,
        0.9878256320953369
      ],
      "min": [
        -0.9961678385734558,
        -0.7354512214660645,
        -0.9484889507293701
      ],
      "type": "VEC3"
    },
    {
      "bufferView": 5,
      "componentType": 5123,
      "count": 168,
      "max": [
        167
      ],
      "min": [
        0
      ],
      "type": "SCALAR"
    },
    {
      "bufferView": 6,
      "componentType": 5126,
      "count": 992,
      "max": [
        0.8790640234947205,
        3.567718267440796,
        0.569269061088562
      ],
      "min": [
        -0.8227963447570801,
        1.1012389659881592,
        -1.9104607105255127
      ],
      "type": "VEC3"
    },
    {
      "bufferView": 7,
      "componentType": 5126,
      "count": 992,
      "max": [
        0.9939047694206238,
        0.9682835340499878,
        0.9958021640777588
      ],
      "min": [
        -0.9950690269470215,
        -0.9865326285362244,
        -0.9967765808105469
      ],
      "type": "VEC3"
    },
    {
      "bufferView": 8,
      "componentType": 5123,
      "count": 1488,
      "max": [
        991
      ],
      "min": [
        0
      ],
      "type": "SCALAR"
    },
    {
      "bufferView": 9,
      "componentType": 5126,
      "count": 160,
      "max": [
        0.3609596788883209,
        1.5151512622833252,
        -0.7045071721076965
      ],
      "min": [
        -0.2677575647830963,
        0.8774142861366272,
        -1.301464557647705
      ],
      "type": "VEC3"
    },
    {
      "bufferView": 10,
      "componentType": 5126,
      "count": 160,
      "max": [
        0.8816880583763123,
        0.9812582731246948,
        0.9892022609710693
      ],
      "min": [
        -0.9832229614257812,
        -0.8760006427764893,
        -0.9863139390945435
      ],
      "type": "VEC3"
    },
    {
      "bufferView": 11,
      "componentType": 5123,
      "count": 240,
      "max": [
        159
      ],
      "min": [
        0
      ],
      "type": "SCALAR"
    },
    {
      "bufferView": 12,
      "componentType": 5126,
      "count": 2144,
      "max": [
        0.280149906873703,
        2.686344623565674,
        0.15886908769607544
      ],
      "min": [
        -0.21908558905124664,
        -0.006081616505980492,
        -1.6560511589050293
      ],
      "type": "VEC3"
    },
    {
      "bufferView": 13,
      "componentType": 5126,
      "count": 2144,
      "max": [
        0.9991178512573242,
        0.9319217801094055,
        0.9923385381698608
      ],
      "min": [
        -0.9960218667984009,
        -1,
        -0.9954705834388733
      ],
      "type": "VEC3"
    },
    {
      "bufferView": 14,
      "componentType": 5126,
      "count": 168,
      "max": [
        0.280149906873703,
        2.0041983127593994,
        0.1535726934671402
      ],
      "min": [
        -0.20245550572872162,
        0.161623015999794,
        -1.5157122611999512
      ],
      "type": "VEC3"
    },
    {
      "bufferView": 15,
      "componentType": 5126,
      "count": 168,
      "max": [
        0.981581449508667,
        0.5885465145111084,
        0.9878256320953369
      ],
      "min": [
        -0.9961678385734558,
        -0.7354512214660645,
        -0.9484889507293701
      ],
      "type": "VEC3"
    },
    {
      "bufferView": 16,
      "componentType": 5126,
      "count": 992,
      "max": [
        0.8790640234947205,
        3.567718267440796,
        0.569269061088562
      ],
      "min": [
        -0.8227963447570801,
        1.1012389659881592,
        -1.9104607105255127
      ],
      "type": "VEC3"
    },
    {
      "bufferView": 17,
      "componentType": 5126,
      "count": 992,
      "max": [
        0.9939047694206238,
        0.9682835340499878,
        0.9958021640777588
      ],
      "min": [
        -0.9950690269470215,
        -0.9865326285362244,
        -0.9967765808105469
      ],
      "type": "VEC3"
    },
    {
      "bufferView": 18,
      "componentType": 5126,
      "count": 160,
      "max": [
        0.3609596788883209,
        1.5151512622833252,
        -0.7045071721076965
      ],
      "min": [
        -0.2677575647830963,
        0.8774142861366272,
        -1.301464557647705
      ],
      "type": "VEC3"
    },
    {
      "bufferView": 19,
      "componentType": 5126,
      "count": 160,
      "max": [
        0.8816880583763123,
        0.9812582731246948,
        0.9892022609710693
      ],
      "min": [
        -0.9832229614257812,
        -0.8760006427764893,
        -0.9863139390945435
      ],
      "type": "VEC3"
    },
    {
      "bufferView": 20,
      "componentType": 5126,
      "count": 2144,
      "max": [
        0.280149906873703,
        2.686344623565674,
        0.15886908769607544
      ],
      "min": [
        -0.21908558905124664,
        -0.006081616505980492,
        -1.6560511589050293
      ],
      "type": "VEC3"
    },
    {
      "bufferView": 21,
      "componentType": 5126,
      "count": 2144,
      "max": [
        0.9991178512573242,
        0.9319217801094055,
        0.9923385381698608
      ],
      "min": [
        -0.9960218667984009,
        -1,
        -0.9954705834388733
      ],
      "type": "VEC3"
    },
    {
      "bufferView": 22,
      "componentType": 5126,
      "count": 168,
      "max": [
        0.280149906873703,
        2.0041983127593994,
        0.1535726934671402
      ],
      "min": [
        -0.20245550572872162,
        0.161623015999794,
        -1.5157122611999512
      ],
      "type": "VEC3"
    },
    {
      "bufferView": 23,
      "componentType": 5126,
      "count": 168,
      "max": [
        0.981581449508667,
        0.5885465145111084,
        0.9878256320953369
      ],
      "min": [
        -0.9961678385734558,
        -0.7354512214660645,
        -0.9484889507293701
      ],
      "type": "VEC3"
    },
    {
      "bufferView": 24,
      "componentType": 5126,
      "count": 992,
      "max": [
        0.8790640234947205,
        3.567718267440796,
        0.569269061088562
      ],
      "min": [
        -0.8227963447570801,
        1.1012389659881592,
        -1.9104607105255127
      ],
      "type": "VEC3"
    },
    {
      "bufferView": 25,
      "componentType": 5126,
      "count": 992,
      "max": [
        0.9939047694206238,
        0.9682835340499878,
        0.9958021640777588
      ],
      "min": [
        -0.9950690269470215,
        -0.9865326285362244,
        -0.9967765808105469
      ],
      "type": "VEC3"
    },
    {
      "bufferView": 26,
      "componentType": 5126,
      "count": 160,
      "max": [
        0.3609596788883209,
        1.5151512622833252,
        -0.7045071721076965
      ],
      "min": [
        -0.2677575647830963,
        0.8774142861366272,
        -1.301464557647705
      ],
      "type": "VEC3"
    },
    {
      "bufferView": 27,
      "componentType": 5126,
      "count": 160,
      "max": [
        0.8816880583763123,
        0.9812582731246948,
        0.9892022609710693
      ],
      "min": [
        -0.9832229614257812,
        -0.8760006427764893,
        -0.9863139390945435
      ],
      "type": "VEC3"
    }
  ],
  "materials": [
    {
      "pbrMetallicRoughness": {
        "metallicFactor": 1,
        "roughnessFactor": 1
      },
      "doubleSided": true,
      "name": "Black.001"
    },
    {
      "pbrMetallicRoughness": {
        "baseColorFactor": [
          0.6554416418075562,
          0.685953676700592,
          0.6257363557815552,
          1
        ],
        "metallicFactor": 0,
        "roughnessFactor": 0.5
      },
      "doubleSided": true,
      "name": "White.001"
    },
    {
      "pbrMetallicRoughness": {
        "baseColorFactor": [
          0.006608088966459036,
          0.15486276149749756,
          0.005906997714191675,
          1
        ],
        "metallicFactor": 0,
        "roughnessFactor": 0.5
      },
      "doubleSided": true,
      "name": "Green.001"
    },
    {
      "pbrMetallicRoughness": {
        "baseColorFactor": [
          0.05316007137298584,
          0.09083576500415802,
          0.03697298839688301,
          1
        ],
        "metallicFactor": 0,
        "roughnessFactor": 0.5
      },
      "doubleSided": true,
      "name": "DarkGreen.001"
    },
    {
      "pbrMetallicRoughness": {
        "metallicFactor": 1,
        "roughnessFactor": 1
      },
      "doubleSided": true,
      "name": "Black.002"
    },
    {
      "pbrMetallicRoughness": {
        "baseColorFactor": [
          0.6554416418075562,
          0.685953676700592,
          0.6257363557815552,
          1
        ],
        "metallicFactor": 0,
        "roughnessFactor": 0.5
      },
      "doubleSided": true,
      "name": "White.002"
    },
    {
      "pbrMetallicRoughness": {
        "baseColorFactor": [
          0.03324635699391365,
          0.8000000715255737,
          0.014299197122454643,
          1
        ],
        "metallicFactor": 0,
        "roughnessFactor": 0.5
      },
      "doubleSided": true,
      "name": "Green.002"
    },
    {
      "pbrMetallicRoughness": {
        "baseColorFactor": [
          0.05316007137298584,
          0.09083576500415802,
          0.03697298839688301,
          1
        ],
        "metallicFactor": 0,
        "roughnessFactor": 0.5
      },
      "doubleSided": true,
      "name": "DarkGreen.002"
    },
    {
      "pbrMetallicRoughness": {
        "metallicFactor": 1,
        "roughnessFactor": 1
      },
      "doubleSided": true,
      "name": "Black"
    },
    {
      "pbrMetallicRoughness": {
        "baseColorFactor": [
          0.6554416418075562,
          0.685953676700592,
          0.6257363557815552,
          1
        ],
        "metallicFactor": 0,
        "roughnessFactor": 0.5
      },
      "doubleSided": true,
      "name": "White"
    },
    {
      "pbrMetallicRoughness": {
        "baseColorFactor": [
          0.011962222866714,
          0.025875264778733253,
          0.8000000715255737,
          1
        ],
        "metallicFactor": 0,
        "roughnessFactor": 0.5
      },
      "doubleSided": true,
      "name": "Green"
    },
    {
      "pbrMetallicRoughness": {
        "baseColorFactor": [
          0.05316007137298584,
          0.09083576500415802,
          0.03697298839688301,
          1
        ],
        "metallicFactor": 0,
        "roughnessFactor": 0.5
      },
      "doubleSided": true,
      "name": "DarkGreen"
    }
  ],
  "meshes": [
    {
      "primitives": [
        {
          "mode": 4,
          "attributes": {
            "POSITION": 0,
            "NORMAL": 1
          },
          "indices": 2,
          "material": 0
        }
      ]
    },
    {
      "primitives": [
        {
          "mode": 4,
          "attributes": {
            "POSITION": 3,
            "NORMAL": 4
          },
          "indices": 5,
          "material": 1
        }
      ]
    },
    {
      "primitives": [
        {
          "mode": 4,
          "attributes": {
            "POSITION": 6,
            "NORMAL": 7
          },
          "indices": 8,
          "material": 2
        }
      ]
    },
    {
      "primitives": [
        {
          "mode": 4,
          "attributes": {
            "POSITION": 9,
            "NORMAL": 10
          },
          "indices": 11,
          "material": 3
        }
      ]
    },
    {
      "primitives": [
        {
          "mode": 4,
          "attributes": {
            "POSITION": 12,
            "NORMAL": 13
          },
          "indices": 2,
          "material": 4
        }
      ]
    },
    {
      "primitives": [
        {
          "mode": 4,
          "attributes": {
            "POSITION": 14,
            "NORMAL": 15
          },
          "indices": 5,
          "material": 5
        }
      ]
    },
    {
      "primitives": [
        {
          "mode": 4,
          "attributes": {
            "POSITION": 16,
            "NORMAL": 17
          },
          "indices": 8,
          "material": 6
        }
      ]
    },
    {
      "primitives": [
        {
          "mode": 4,
          "attributes": {
            "POSITION": 18,
            "NORMAL": 19
          },
          "indices": 11,
          "material": 7
        }
      ]
    },
    {
      "primitives": [
        {
          "mode": 4,
          "attributes": {
            "POSITION": 20,
            "NORMAL": 21
          },
          "indices": 2,
          "material": 8
        }
      ]
    },
    {
      "primitives": [
        {
          "mode": 4,
          "attributes": {
            "POSITION": 22,
            "NORMAL": 23
          },
          "indices": 5,
          "material": 9
        }
      ]
    },
    {
      "primitives": [
        {
          "mode": 4,
          "attributes": {
            "POSITION": 24,
            "NORMAL": 25
          },
          "indices": 8,
          "material": 10
        }
      ]
    },
    {
      "primitives": [
        {
          "mode": 4,
          "attributes": {
            "POSITION": 26,
            "NORMAL": 27
          },
          "indices": 11,
          "material": 11
        }
      ]
    }
  ],
  "extensionsUsed": [
    "KHR_lights_punctual"
  ]
}